<svg width="391" height="208" viewBox="0 0 391 208" fill="none" xmlns="http://www.w3.org/2000/svg">
<path d="M274.767 11.0062C287.151 10.0159 286.133 15.7209 285.503 26.063C284.91 35.7935 282.637 45.8746 281.77 55.5857C281.252 61.3776 280.775 69.2823 275.06 72.0553C273.601 72.7633 271.876 72.8507 270.3 73.1558C255.927 77.1365 256.613 63.8197 249.259 56.4649C249.047 56.2541 248.101 57.0771 247.997 57.4281C246.758 61.6107 246.942 66.3173 246.063 70.622C245.094 78.4088 231.007 81.7066 226.386 76.2487C222.103 71.1909 218.349 63.4155 214.833 57.63C211.393 51.1887 206.616 44.8478 204.111 38.0162C203.378 36.0204 203.238 29.6813 203.614 27.566C204.438 22.9369 212.111 20.2984 216.243 21.3564C220.971 22.5664 222.891 27.4382 224.852 31.3727C226.24 34.1396 227.867 37.067 229.296 39.8316C229.729 40.6458 230.11 40.8996 230.919 41.099C233.557 38.5484 231.186 20.7173 236.246 18.1513C238.521 16.7849 241.166 16.4967 243.72 15.9352C252.917 13.9143 254.533 18.8872 258.484 25.8736C260.162 28.9041 261.938 31.88 263.806 34.7962C268.592 26.7279 262.851 12.8175 274.767 11.0062Z" fill="#A4C69D"/>
<path d="M304.915 87.0816C305.975 87.0158 307.479 86.9249 308.541 86.944C318.193 87.4532 326.231 96.7403 333.12 102.698C338.895 108.129 348.362 113.693 339.911 122.06C339.007 122.884 337.796 123.761 336.678 124.286C327.074 128.8 318.681 112.719 311.962 108.048C309.345 106.228 306.412 102.966 303.602 106.252C299.693 110.827 309.143 116.908 311.746 119.676C313.287 121.292 315.86 123.46 317.466 125.042C321.373 128.891 322.753 129.8 323.07 135.336C323.565 143.985 319.79 151.023 310.97 152.963C309.261 152.887 307.713 151.632 307.118 150.06C306.012 147.566 306.963 142.658 305.503 140.46C302.577 136.059 297.313 131.541 293.501 127.887C292.436 126.839 291.323 125.698 290.168 124.759C284.804 120.398 280.692 122.578 282.835 129.478C285.712 132.201 288.474 135.084 291.3 137.864C294.022 140.542 297.05 143.061 299.274 146.189C300.013 147.231 300.443 148.285 300.748 149.52C301.675 153.28 301.334 160.918 299.26 164.239C297.578 166.934 293.91 169.701 290.795 170.396C289.573 170.668 288.295 170.581 287.223 169.884C284.913 168.381 283.967 163.996 282.851 161.559C282.191 160.119 281.378 158.741 280.525 157.41C276.202 150.676 258.6 133.922 257.517 128.257C257.127 126.206 257.843 124.448 259.023 122.786C260.739 120.373 263.7 118.803 266.689 118.971C267.886 119.038 269.22 119.327 270.4 119.098C270.886 119.004 273.122 112.733 274.001 111.442C276.271 108.106 280.332 105.389 284.295 104.648C285.712 104.382 287.186 104.443 288.594 104.151C288.987 104.07 289.571 103.941 289.833 103.617C290.8 102.43 291.037 100.087 291.567 98.6257C292.09 97.1729 292.792 95.7909 293.657 94.5119C296.288 90.6518 300.332 87.9824 304.915 87.0816Z" fill="#F4D98D"/>
<path d="M126.089 31.4773C129.833 30.6917 135.707 31.7678 139.518 33.2228C151.22 37.6911 154.61 59.3782 150.469 69.6782C147.211 77.7823 136.55 81.2646 128.621 84.1964C130.303 88.8521 132.619 99.2176 129.484 103.528C127.337 106.479 124.327 107.612 120.882 108.249C116.138 109.138 112.136 106.855 110.238 102.53C107.36 95.9725 104.789 89.319 102.175 82.652L97.5598 70.9323C95.6384 66.131 93.3683 61.1857 92.6404 56.0292C92.1423 52.5001 91.4376 45.8749 93.7809 42.8679C96.8254 38.9611 120.68 32.1207 126.089 31.4773ZM122.822 58.2493C125.744 57.3173 129.512 56.1519 131.072 53.2797C132.328 50.9645 131.395 48.6944 129.117 47.5495C127.152 46.562 125.434 46.6087 123.31 46.787C121.461 47.2606 116.311 48.4973 115.349 50.2726C114.702 51.4665 117.361 57.7954 118.474 58.739C119.833 59.0591 121.436 58.5733 122.822 58.2493Z" fill="#A4C69D"/>
<path d="M134.134 131.371C134.586 131.334 135.039 131.31 135.492 131.301C146.766 131.124 145.949 139.939 146.48 148.351C146.524 149.052 146.5 149.796 146.504 150.5C153.157 147.06 164.555 147.354 169.189 153.959C176.535 164.429 173.684 179.981 172.061 191.83C171.442 196.353 170.645 202.719 167.36 206.193C165.274 207.777 162.056 207.621 159.873 207.382C151.344 206.25 151.913 202.393 151.263 195.715C150.54 188.272 151.286 184.474 152.301 177.288C153.012 174.017 154.018 168.823 152.958 165.571C152.629 164.563 152.005 163.62 151.028 163.147C149.806 162.555 148.281 162.843 147.063 163.292C145.763 163.771 145.095 164.582 144.545 165.835C143.473 168.273 143.196 171.216 142.869 173.838C141.959 181.14 141.704 194.407 138.7 200.562C138.104 201.783 137.094 203.159 135.74 203.594C132.269 204.708 127.53 204.434 124.279 202.656C122.414 201.636 121.621 200.026 121.03 198.057C120.014 194.672 119.999 190.398 120.186 186.881C120.534 180.348 121.833 173.972 122.711 167.507C123.356 162.76 126.167 138.055 127.772 135.17C129.2 132.602 131.501 132.087 134.134 131.371Z" fill="#F4D98D"/>
<path d="M202.211 143.052C208.133 142.23 216.863 144.069 220.301 149.495C224.989 156.894 226.097 166.633 229.161 174.803C230.165 177.479 232.168 179.88 232.84 182.697C233.063 185.453 233.537 189.664 233.093 192.323C231.759 200.267 221.428 200.356 215.564 198.006C214.878 197.731 211.157 200.79 210.432 201.257C205.205 204.636 198.761 206.823 192.493 205.736C186.936 204.678 184.214 202.61 181.12 198.199C178.724 193.676 177.536 187.003 177.898 181.927C179.128 164.679 196.06 166.797 205.519 158.425C204.292 155.923 202.913 155.192 200.266 155.47C194.893 156.033 194.805 158.629 192.546 161.803C190.964 164.024 175.595 166.164 175.879 160.253C176.451 148.354 192.448 143.362 202.211 143.052ZM198.926 181.327C202.566 182.669 207.611 180.039 209.01 176.618C209.619 175.134 209.528 171.067 208.445 170.088C204.803 172.306 192.86 175.891 198.926 181.327Z" fill="#F4D98D"/>
<path d="M181.916 30.7801C184.586 30.3229 188.611 31.0936 191.243 31.7267C201.843 34.2766 203.917 51.4403 207.667 59.9711C208.573 62.0343 210.254 64.3395 211.365 66.3339C213.038 69.3474 213.733 76.1588 212.715 79.4169C211.939 81.8924 210.191 83.9463 207.871 85.1073C204.008 87.0657 200.082 86.387 196.185 85.1108C194.717 85.997 192.798 87.4266 191.452 88.5325C183.31 95.2214 166.812 96.3435 160.531 86.1339C157.67 80.8588 157.613 73.8116 158.14 67.9936C159.124 57.1097 167.954 54.2268 176.704 50.5166C178.475 49.7661 180.971 48.8892 182.45 47.6976C183.248 47.0549 183.72 46.4527 183.815 45.4187C183.119 42.8337 180.998 42.7754 178.693 42.9855C174.291 43.3864 173.657 45.8912 171.501 49.0131C169.781 51.0531 166.023 51.4347 163.672 51.8268C153.772 53.4779 153.095 46.5015 158.374 40.1646C163.771 33.6865 173.832 31.5268 181.916 30.7801ZM180.086 68.7887C184.255 68.7783 187.332 66.7422 189.164 63.0158C188.863 61.274 188.858 59.619 187.558 58.5087C186.802 58.1826 186.295 58.3195 185.476 58.4234C182.947 59.6741 177.728 62.0964 176.658 64.8215C175.776 67.0693 178.284 68.2818 180.086 68.7887Z" fill="#A4C69D"/>
<path d="M87.439 123.747C99.9586 122.883 116.402 127.262 120.977 140.939C122.14 144.418 122.599 147.193 121.124 150.623C117.149 153.548 110.189 152.202 105.845 150.69C103.662 148.439 103.633 146.748 102.255 144.159C99.5674 139.11 92.2736 138.348 87.6821 141.084C82.2604 144.315 79.2763 150.348 77.5924 156.216C74.8682 165.095 81.7028 171.69 90.5636 169.501C96.9766 167.917 97.4498 161.919 104.801 163.867C117.589 169.396 115.408 175.635 105.874 183.054C92.3754 193.558 69.1474 189.835 60.3111 175.184C52.9548 162.987 58.323 145.083 66.6904 134.773C72.1723 128.081 78.9358 124.599 87.439 123.747Z" fill="#F4D98D"/>
<path d="M29.767 94.6698C33.7789 94.5273 36.9386 95.7505 39.651 98.742C44.1593 98.9759 46.0661 96.9798 50.4895 98.3653C53.6168 99.3447 55.9103 101.079 57.4564 104.01C59.9205 108.681 57.7404 112.908 56.3256 117.364C59.451 121.983 62.6631 126.181 59.9252 132.072C57.1919 137.953 50.2106 138.095 45.7588 140.822C40.3787 144.117 39.1838 147.172 32.7634 149.41C23.7559 150.297 20.9227 147.023 16.714 139.916C15.404 139.822 14.0355 139.816 12.6973 139.76C6.02536 139.478 -2.1452 133.39 0.51603 125.973C1.43944 123.399 3.68719 121.261 5.36342 119.066C5.1124 118.256 4.78353 117.179 4.61061 116.354C4.01003 113.442 4.5941 110.411 6.23384 107.932C10.2071 102.006 16.3119 104.283 18.1562 102.821C23.3924 98.6665 21.242 96.3827 29.767 94.6698Z" fill="#ECB7BC"/>
<path d="M33.0743 116.732C36.7996 116.481 38.7998 118.322 41.9119 118.819C47.9103 119.777 51.8454 118.855 55.0182 125.535C54.7997 134.688 45.8276 133.35 39.8778 137.908C37.3707 140.147 35.376 142.17 31.9064 143.172C28.4345 144.176 23.8207 142.088 22.9459 138.42C22.3081 135.429 24.3673 132.111 24.7504 129.391C25.6382 123.088 25.2801 118.09 33.0743 116.732Z" fill="#E299A1"/>
<path d="M13.3579 107.654C20.1783 106.751 28.1069 116.78 19.9487 120.594C15.4018 121.044 10.4619 117.884 9.9127 113.133C9.8016 112.171 10.0449 111.09 10.2381 110.141C11.3498 108.797 11.8 108.45 13.3579 107.654Z" fill="#E299A1"/>
<path d="M28.853 98.5631C33.94 98.1649 36.3054 102.244 37.371 106.663C36.4262 109.444 36.092 111.174 33.4322 112.65C27.6795 113.718 23.6072 107.086 25.7065 102.052C26.3036 100.62 27.6656 99.5467 28.853 98.5631Z" fill="#E299A1"/>
<path d="M46.0723 101.823C47.1729 101.693 47.9952 101.645 49.069 102.012C50.3968 102.46 51.4787 103.439 52.056 104.716C52.9878 106.724 52.9079 110.095 52.0853 112.143C51.1979 114.352 50.2834 115.019 48.2011 115.909C40.7097 116.003 39.8655 105.827 46.0723 101.823Z" fill="#E299A1"/>
<path d="M365.444 0C366.706 0.114212 367.28 0.49299 368.37 1.08146C371.649 6.0631 370.84 10.6575 373.339 15.2156C375.052 18.3419 392.444 20.8274 390.624 26.3546C389.104 30.9691 377.004 33.0921 374.55 37.82C373.734 39.5446 373.553 46.8017 373.32 49.0299C373.146 50.8391 372.807 52.6287 372.309 54.377C368.102 57.8792 365.732 55.4699 362.373 52.1641C360.509 50.3285 358.708 48.4514 356.795 46.6599C351.921 41.71 347.473 44.1263 341.293 44.4347C337.025 44.6476 333.369 46.0431 331.852 40.8089C333.014 35.9674 337.509 31.466 339.584 25.88C338.285 21.2901 335.029 18.3581 333.016 14.1962C331.803 11.6914 332.375 10.2773 334.506 8.66806C339.098 8.18945 346.715 10.0744 351.798 10.4649C357.167 7.6113 361.027 1.24966 365.444 0Z" fill="#ECB7BC"/>
<path d="M333.488 51.0024C335.856 50.7693 342.194 51.593 341.209 55.1416C340.516 57.6346 339.679 59.4872 338.373 61.6713C336.095 65.4825 332.14 63.7677 328.902 65.9174C327.001 67.2127 325.093 70.0371 326.657 72.2671C328.607 73.38 330.643 71.0016 332.263 69.9178C336.674 66.9658 341.957 61.5664 347.303 60.6995C356.295 59.1641 366.722 64.1273 367.977 73.938C369.662 87.1187 356.99 99.8096 344.786 102.035C341.806 102.291 335.366 102.323 335.326 98.2477C335.284 93.8591 337.806 89.7587 340.458 86.4481C342.459 83.9487 345.285 84.2569 348.188 84.0737C349.625 83.1782 353.527 79.7079 353.053 77.918C351.907 73.5931 345.827 78.4133 344.019 79.8729C338.185 84.5785 331.517 89.8929 323.487 88.3491C316.879 87.4912 312.056 82.6943 311.359 76.0475C310.696 69.7409 313.506 64.5319 317.293 59.6901C321.509 54.2974 326.703 51.6869 333.488 51.0024Z" fill="#F4D98D"/>
<path d="M249.618 124.64C254.255 124.455 257.562 131.454 258.129 135.434C258.88 140.726 252.47 139.361 250.099 142.432C248.419 144.609 249.053 148.453 249.862 150.964C252.679 157.51 259.403 164.645 260.421 171.65C260.877 174.78 259.979 182.416 257.929 184.939C256.586 186.593 251.168 189.416 248.907 189.479C246.334 189.55 245.641 189.315 243.787 187.738C241.037 184.176 239.982 176.536 237.69 171.89C234.652 165.533 231.238 159.341 228.005 153.084C227.099 151.327 223.412 146.079 223.087 144.539C221.33 136.234 230.964 130.602 238.197 134.432C241.423 128.722 242.127 126.123 249.618 124.64Z" fill="#F4D98D"/>
</svg>
